HIERARCHY
ROOT joint_Root
{
	OFFSET 0.0 0.0 0.0
	CHANNELS 6 Xposition Yposition Zposition Zrotation Xrotation Yrotation 
	JOINT Hips
	{
		OFFSET -0.726466 93.3139 -2.00062
		CHANNELS 6 Xposition Yposition Zposition Zrotation Xrotation Yrotation 
		JOINT Spine
		{
			OFFSET 15.7357 0.0 0.0
			CHANNELS 6 Xposition Yposition Zposition Zrotation Xrotation Yrotation 
			JOINT Chest
			{
				OFFSET 8.98455 -0.406207 0.0
				CHANNELS 6 Xposition Yposition Zposition Zrotation Xrotation Yrotation 
				JOINT Neck
				{
					OFFSET 16.3773 0.0 0.0
					CHANNELS 6 Xposition Yposition Zposition Zrotation Xrotation Yrotation 
					JOINT Head
					{
						OFFSET 6.45672 0.0 0.0
						CHANNELS 6 Xposition Yposition Zposition Zrotation Xrotation Yrotation 
						End Site
						{
							OFFSET 0.0 0.0 0.0
						}
					}
				}
				JOINT Shoulder_L
				{
					OFFSET 12.9942 -0.242716 4.98039
					CHANNELS 6 Xposition Yposition Zposition Zrotation Xrotation Yrotation 
					JOINT UpperArm_L
					{
						OFFSET 5.34809 0.0 0.0
						CHANNELS 6 Xposition Yposition Zposition Zrotation Xrotation Yrotation 
						JOINT LowerArm_L
						{
							OFFSET 24.3286 1.87007e-05 0.0
							CHANNELS 6 Xposition Yposition Zposition Zrotation Xrotation Yrotation 
							JOINT Hand_L
							{
								OFFSET 22.2916 0.0 0.0
								CHANNELS 6 Xposition Yposition Zposition Zrotation Xrotation Yrotation 
								End Site
								{
									OFFSET 0.0 0.0 0.0
								}
							}
						}
					}
				}
				JOINT Shoulder_R
				{
					OFFSET 12.9945 -0.242716 -4.98039
					CHANNELS 6 Xposition Yposition Zposition Zrotation Xrotation Yrotation 
					JOINT UpperArm_R
					{
						OFFSET -5.34813 0.0 0.0
						CHANNELS 6 Xposition Yposition Zposition Zrotation Xrotation Yrotation 
						JOINT LowerArm_R
						{
							OFFSET -24.3289 0.000322201 0.0
							CHANNELS 6 Xposition Yposition Zposition Zrotation Xrotation Yrotation 
							JOINT Hand_R
							{
								OFFSET -22.2915 -0.000108084 0.0
								CHANNELS 6 Xposition Yposition Zposition Zrotation Xrotation Yrotation 
								End Site
								{
									OFFSET 0.0 0.0 0.0
								}
							}
						}
					}
				}
			}
		}
		JOINT UpperLeg_L
		{
			OFFSET -2.19248 -6.46944 0.0
			CHANNELS 6 Xposition Yposition Zposition Zrotation Xrotation Yrotation 
			JOINT LowerLeg_L
			{
				OFFSET 39.0811 0.0 -1.23785e-05
				CHANNELS 6 Xposition Yposition Zposition Zrotation Xrotation Yrotation 
				JOINT Foot_L
				{
					OFFSET 40.9854 0.0 -1.26872e-05
					CHANNELS 6 Xposition Yposition Zposition Zrotation Xrotation Yrotation 
					JOINT Toes_L
					{
						OFFSET 11.7543 0.0 0.0
						CHANNELS 6 Xposition Yposition Zposition Zrotation Xrotation Yrotation 
						End Site
						{
							OFFSET 0.0 0.0 0.0
						}
					}
				}
			}
		}
		JOINT UpperLeg_R
		{
			OFFSET -2.19251 6.46944 0.0
			CHANNELS 6 Xposition Yposition Zposition Zrotation Xrotation Yrotation 
			JOINT LowerLeg_R
			{
				OFFSET -39.0811 -0.00228153 -0.0401928
				CHANNELS 6 Xposition Yposition Zposition Zrotation Xrotation Yrotation 
				JOINT Foot_R
				{
					OFFSET -40.9854 0.0 0.0
					CHANNELS 6 Xposition Yposition Zposition Zrotation Xrotation Yrotation 
					JOINT Toes_R
					{
						OFFSET -11.7543 0.0 0.0
						CHANNELS 6 Xposition Yposition Zposition Zrotation Xrotation Yrotation 
						End Site
						{
							OFFSET 0.0 0.0 0.0
						}
					}
				}
			}
		}
	}
}
MOTION
Frames:	4
Frame Time:	0.0333333
0.000000 0.000000 0.000000 0.000000 0.000000 -0.000000 1.300780 93.132600 -406.486000 91.105900 -9.897640 -10.917800 15.735700 0.000005 -0.000001 118.067000 80.601200 -119.471000 8.984550 -0.406207 -0.000000 9.009580 8.783630 -3.502300 16.377300 -0.000001 -0.000001 4.572600 0.328391 -0.642666 6.456720 -0.000001 -0.000000 -5.148310 -5.439080 3.885530 12.994200 -0.242716 4.980390 -85.140700 -9.225630 -62.064100 5.348090 -0.000007 -0.000001 -67.345300 28.966900 23.738200 24.328600 0.000019 0.000005 1.986040 1.382580 -55.169200 22.291600 -0.000001 0.000005 -5.855050 5.593850 -10.981100 12.994500 -0.242716 -4.980390 90.405500 -1.084130 -69.492600 -5.348130 -0.000001 -0.000004 -42.438200 14.313400 -41.360500 -24.328900 0.000322 -0.000009 -6.620440 0.438430 -93.769500 -22.291500 -0.000108 -0.000004 0.389181 5.483130 -5.868000 -2.192480 -6.469440 -0.000000 174.417000 -4.322720 -45.132100 39.081100 -0.000007 -0.000012 0.038990 -0.025989 56.310100 40.985400 -0.000006 -0.000013 8.452790 -4.707130 -66.670000 11.754300 -0.000000 0.000003 -0.005581 -0.066994 -19.303000 -2.192510 6.469440 -0.000001 171.454000 14.383100 -177.795000 -39.081100 -0.002282 -0.040193 0.069108 -0.139162 25.305300 -40.985400 0.000008 0.000006 0.980973 11.610400 -39.696700 -11.754300 -0.000006 -0.000006 -0.145713 -0.546203 -39.647000
0.000000 0.000000 0.000000 0.000000 0.000000 -0.000000 1.205040 94.040200 -398.959000 89.351400 -9.289650 -9.498030 15.735700 0.000005 -0.000001 118.051000 80.157500 -119.042000 8.984550 -0.406207 -0.000000 9.780210 9.184260 -2.772550 16.377300 -0.000001 -0.000001 5.378880 0.087889 -0.814406 6.456720 -0.000001 -0.000000 -5.609720 -5.752350 4.496990 12.994200 -0.242716 4.980390 -84.843800 -9.827760 -62.136000 5.348090 -0.000007 -0.000001 -68.271900 28.296300 23.426700 24.328600 0.000019 0.000005 2.592870 1.618590 -58.040400 22.291600 -0.000001 0.000005 -5.248420 5.587750 -10.636500 12.994500 -0.242716 -4.980390 90.565100 -1.497610 -69.323700 -5.348130 -0.000001 -0.000004 -44.544900 17.364300 -39.528600 -24.328900 0.000322 -0.000009 -6.282940 0.227004 -92.057600 -22.291500 -0.000108 -0.000004 1.065320 5.491770 -6.203460 -2.192480 -6.469440 -0.000000 176.953000 -4.818780 -38.218500 39.081100 -0.000007 -0.000012 0.023803 -0.029543 38.855800 40.985400 -0.000006 -0.000013 4.494980 -0.710558 -68.467100 11.754300 -0.000000 0.000003 -0.006201 -0.072659 -19.534000 -2.192510 6.469440 -0.000001 171.150000 13.815500 -173.416000 -39.081100 -0.002282 -0.040193 0.091585 -0.198294 23.996400 -40.985400 0.000008 0.000006 -4.287420 9.421380 -29.585800 -11.754300 -0.000006 -0.000006 -0.024632 -0.191715 -24.415700
0.000000 0.000000 0.000000 0.000000 0.000000 -0.000000 0.990474 93.643400 -391.229000 87.493800 -9.446950 -8.714750 15.735700 0.000005 -0.000001 119.419000 79.999300 -120.057000 8.984550 -0.406207 -0.000000 9.816070 9.754060 -2.115870 16.377300 -0.000001 -0.000001 5.446630 -0.060868 -0.370046 6.456720 -0.000001 -0.000000 -4.757960 -5.868320 4.690870 12.994200 -0.242716 4.980390 -84.884600 -9.701010 -62.020500 5.348090 -0.000007 -0.000001 -68.155000 27.200400 21.681700 24.328600 0.000019 0.000005 3.727550 2.117030 -60.441800 22.291600 -0.000001 0.000005 -4.382890 5.591220 -10.829200 12.994500 -0.242716 -4.980390 90.595600 -1.585760 -69.411000 -5.348130 -0.000001 -0.000004 -47.160900 21.010300 -36.488000 -24.328900 0.000322 -0.000009 -6.221090 -0.080493 -89.255600 -22.291500 -0.000108 -0.000004 1.527700 5.503480 -6.674070 -2.192480 -6.469440 -0.000000 178.600000 -7.439940 -33.086900 39.081100 -0.000007 -0.000012 0.007379 -0.014877 26.380700 40.985400 -0.000006 -0.000013 2.298690 -0.190289 -69.642800 11.754300 -0.000000 0.000003 -0.006177 -0.072447 -19.525400 -2.192510 6.469440 -0.000001 172.287000 10.557200 -171.356000 -39.081100 -0.002282 -0.040193 0.095411 -0.172197 28.141600 -40.985400 0.000008 0.000006 -4.613910 4.249920 -29.943500 -11.754300 -0.000006 -0.000006 -0.022843 -0.182554 -24.037400
0.000000 0.000000 0.000000 0.000000 0.000000 -0.000000 0.985866 92.262300 -383.559000 86.610700 -9.770290 -8.988400 15.735700 0.000005 -0.000001 119.462000 80.315300 -120.135000 8.984550 -0.406207 -0.000000 9.248440 9.466610 -2.112890 16.377300 -0.000001 -0.000001 5.228420 0.194601 0.024177 6.456720 -0.000001 -0.000000 -3.981770 -5.501210 5.087130 12.994200 -0.242716 4.980390 -85.332800 -8.769020 -61.830700 5.348090 -0.000007 -0.000001 -67.593700 24.647400 18.784500 24.328600 0.000019 0.000005 3.914260 2.093370 -61.903300 22.291600 -0.000001 0.000005 -3.328030 5.598020 -11.220500 12.994500 -0.242716 -4.980390 90.460200 -1.265390 -70.015000 -5.348130 -0.000001 -0.000004 -50.647200 24.648900 -32.689300 -24.328900 0.000322 -0.000009 -5.138190 -0.479395 -84.671700 -22.291500 -0.000108 -0.000004 2.131050 5.514410 -7.122040 -2.192480 -6.469440 -0.000000 178.287000 -10.574600 -31.805100 39.081100 -0.000007 -0.000012 0.009759 -0.023530 22.525500 40.985400 -0.000006 -0.000013 1.820170 -5.349360 -70.143400 11.754300 -0.000000 0.000003 -0.006682 -0.076917 -19.707800 -2.192510 6.469440 -0.000001 173.712000 6.222710 -171.841000 -39.081100 -0.002282 -0.040193 0.101988 -0.137062 35.757800 -40.985400 0.000008 0.000006 -2.500540 0.749368 -35.099000 -11.754300 -0.000006 -0.000006 -0.022763 -0.182136 -24.020100
